<?xml version="1.0" encoding="utf-8"?>
<!-- Generator: Adobe Illustrator 23.0.4, SVG Export Plug-In . SVG Version: 6.00 Build 0)  -->
<svg version="1.1" id="Layer_1" xmlns="http://www.w3.org/2000/svg" xmlns:xlink="http://www.w3.org/1999/xlink" x="0px" y="0px"
	 viewBox="0 0 138.22 26.47" style="enable-background:new 0 0 138.22 26.47;" xml:space="preserve">
<style type="text/css">
	.st0{fill:#2EB6AE;}
</style>
<g id="Group_440" transform="translate(-133.893 -178.523)">
	<g id="Group_438" transform="translate(133.893 178.523)">
		<path id="Path_553" class="st0" d="M13,0.5L6.97,10.68c-0.5,0.82-1.56,1.08-2.37,0.58c-0.24-0.14-0.44-0.34-0.58-0.58L0.95,5.49
			C0.03,3.9,0.57,1.87,2.16,0.95C2.69,0.64,3.29,0.49,3.9,0.5L13,0.5z"/>
		<path id="Path_554" class="st0" d="M5.5,13.17l6.6,11.14c0.99,1.63,3.12,2.15,4.75,1.16c0.47-0.29,0.87-0.69,1.16-1.16L29.15,5.49
			c0.92-1.59,0.37-3.62-1.22-4.54c-0.53-0.3-1.13-0.46-1.74-0.44H15.07L8.24,12.03c-0.59,1.03-1.91,1.39-2.94,0.8L5.5,13.17z"/>
	</g>
	<g id="Group_439" transform="translate(165.989 186.332)">
		<path id="Path_555" class="st0" d="M0.48,0.98h1.84c0.18-0.01,0.36,0.05,0.5,0.15c0.13,0.1,0.23,0.24,0.29,0.39l4.8,11.99
			c0.12,0.29,0.22,0.58,0.3,0.88c0.09,0.32,0.18,0.64,0.27,0.98c0.07-0.34,0.15-0.67,0.23-0.98c0.08-0.3,0.17-0.59,0.29-0.88
			l4.78-11.99c0.06-0.15,0.16-0.27,0.29-0.37c0.14-0.12,0.32-0.18,0.5-0.17h1.85L9.48,17.97H7.4L0.48,0.98z"/>
		<path id="Path_556" class="st0" d="M25.7,17.97h-0.94c-0.17,0.01-0.34-0.03-0.5-0.1c-0.14-0.09-0.23-0.23-0.25-0.4l-0.24-1.12
			c-0.32,0.28-0.62,0.54-0.92,0.77c-0.3,0.22-0.61,0.41-0.95,0.57c-0.34,0.16-0.7,0.27-1.06,0.35c-0.41,0.08-0.83,0.12-1.25,0.12
			c-0.44,0-0.89-0.07-1.31-0.2c-0.39-0.12-0.75-0.32-1.06-0.59c-0.31-0.27-0.55-0.61-0.72-0.99c-0.19-0.45-0.28-0.93-0.27-1.42
			c0-0.49,0.14-0.96,0.39-1.37c0.31-0.49,0.75-0.9,1.26-1.17c0.72-0.39,1.48-0.67,2.28-0.84c1.13-0.24,2.29-0.35,3.45-0.33V10.3
			c0.05-0.76-0.16-1.51-0.6-2.13c-0.45-0.5-1.1-0.77-1.77-0.72c-0.44-0.01-0.88,0.06-1.3,0.2c-0.32,0.11-0.62,0.26-0.91,0.44
			c-0.26,0.16-0.48,0.31-0.66,0.44c-0.16,0.12-0.35,0.19-0.55,0.2c-0.13,0-0.26-0.04-0.37-0.11c-0.1-0.07-0.19-0.17-0.26-0.28
			l-0.38-0.68c0.62-0.61,1.35-1.1,2.15-1.43c0.81-0.32,1.68-0.49,2.55-0.48c0.61-0.01,1.22,0.1,1.79,0.33
			c0.5,0.21,0.95,0.52,1.32,0.93c0.37,0.42,0.64,0.9,0.81,1.43c0.19,0.6,0.28,1.22,0.27,1.85L25.7,17.97z M20.22,16.68
			c0.34,0,0.69-0.03,1.02-0.11c0.3-0.07,0.59-0.18,0.87-0.32c0.28-0.14,0.54-0.31,0.78-0.5c0.26-0.21,0.5-0.43,0.73-0.68v-2.48
			c-0.83-0.01-1.66,0.05-2.48,0.18c-0.57,0.09-1.13,0.25-1.66,0.48c-0.36,0.15-0.68,0.39-0.93,0.7c-0.19,0.26-0.29,0.58-0.29,0.91
			c-0.01,0.28,0.05,0.56,0.15,0.82c0.09,0.22,0.24,0.41,0.42,0.57c0.18,0.15,0.39,0.26,0.62,0.32
			C19.7,16.64,19.96,16.68,20.22,16.68L20.22,16.68z"/>
		<path id="Path_557" class="st0" d="M31.25,0.5v17.47h-2.11V0.5H31.25z"/>
		<path id="Path_558" class="st0" d="M36.8,5.96v7.66c-0.05,0.76,0.17,1.5,0.63,2.11c0.49,0.53,1.19,0.8,1.9,0.75
			c0.61,0,1.21-0.15,1.74-0.44c0.57-0.31,1.08-0.73,1.51-1.22V5.96h2.11v12.01h-1.26c-0.27,0.02-0.52-0.17-0.57-0.44l-0.17-1.29
			c-0.5,0.56-1.1,1.03-1.76,1.39c-0.69,0.36-1.45,0.54-2.23,0.53c-0.6,0.01-1.19-0.1-1.74-0.33c-0.49-0.21-0.92-0.52-1.26-0.92
			c-0.35-0.42-0.61-0.91-0.77-1.43c-0.18-0.6-0.26-1.23-0.26-1.86V5.96L36.8,5.96z"/>
		<path id="Path_559" class="st0" d="M52.91,5.77c0.68-0.01,1.36,0.12,1.99,0.36c0.59,0.23,1.13,0.59,1.58,1.04
			c0.46,0.48,0.81,1.06,1.04,1.68c0.26,0.73,0.39,1.51,0.37,2.28c0.02,0.23-0.02,0.45-0.11,0.66c-0.1,0.12-0.25,0.18-0.4,0.17h-7.99
			c0,0.67,0.11,1.34,0.31,1.98c0.16,0.52,0.43,0.99,0.78,1.4c0.32,0.37,0.73,0.66,1.19,0.84c0.49,0.19,1.01,0.29,1.54,0.28
			c0.46,0.01,0.92-0.05,1.37-0.18c0.34-0.11,0.67-0.24,0.99-0.4c0.24-0.12,0.47-0.25,0.69-0.4c0.14-0.11,0.31-0.17,0.48-0.18
			c0.16-0.01,0.31,0.07,0.4,0.2l0.59,0.77c-0.27,0.32-0.58,0.6-0.94,0.82c-0.37,0.23-0.76,0.43-1.17,0.57
			c-0.42,0.15-0.85,0.26-1.29,0.34c-0.43,0.07-0.88,0.11-1.32,0.11c-0.78,0.01-1.56-0.13-2.29-0.42c-0.69-0.27-1.31-0.69-1.81-1.23
			c-0.53-0.58-0.94-1.26-1.19-2.01c-0.3-0.89-0.44-1.82-0.43-2.75c-0.01-0.8,0.12-1.59,0.39-2.35c0.24-0.7,0.62-1.34,1.11-1.89
			c0.49-0.54,1.09-0.96,1.77-1.25C51.31,5.91,52.11,5.75,52.91,5.77z M52.96,7.32c-0.89-0.05-1.76,0.27-2.41,0.88
			c-0.62,0.67-1.01,1.53-1.09,2.45h6.53c0.01-0.46-0.06-0.91-0.2-1.35c-0.12-0.39-0.33-0.75-0.59-1.06
			c-0.26-0.3-0.59-0.53-0.95-0.69C53.84,7.39,53.4,7.31,52.96,7.32L52.96,7.32z"/>
		<path id="Path_560" class="st0" d="M63.22,16.04h7.35v1.93h-9.65V0.98h2.3L63.22,16.04z"/>
		<path id="Path_561" class="st0" d="M81.6,17.97h-0.94c-0.17,0.01-0.34-0.03-0.5-0.1c-0.14-0.09-0.23-0.23-0.25-0.4l-0.24-1.12
			c-0.32,0.28-0.63,0.54-0.93,0.77c-0.3,0.22-0.61,0.41-0.95,0.57c-0.34,0.16-0.7,0.27-1.06,0.35c-0.41,0.08-0.83,0.12-1.25,0.12
			c-0.44,0-0.89-0.07-1.31-0.2c-0.39-0.12-0.75-0.32-1.06-0.59c-0.31-0.27-0.55-0.61-0.72-0.99c-0.19-0.45-0.28-0.93-0.27-1.42
			c0-0.49,0.14-0.96,0.39-1.37c0.31-0.49,0.75-0.9,1.26-1.17c0.71-0.39,1.48-0.67,2.28-0.84c1.13-0.24,2.29-0.35,3.45-0.33V10.3
			c0.05-0.76-0.16-1.51-0.6-2.13c-0.45-0.5-1.1-0.77-1.77-0.72c-0.44-0.01-0.88,0.06-1.3,0.2c-0.32,0.11-0.62,0.26-0.91,0.44
			c-0.26,0.16-0.48,0.31-0.67,0.44c-0.16,0.12-0.35,0.19-0.55,0.2c-0.13,0-0.26-0.04-0.37-0.11c-0.1-0.07-0.19-0.17-0.26-0.28
			l-0.38-0.68c0.62-0.61,1.35-1.1,2.15-1.43c0.81-0.32,1.68-0.49,2.55-0.48c0.61-0.01,1.22,0.1,1.79,0.33
			c0.5,0.21,0.95,0.52,1.32,0.93c0.37,0.42,0.64,0.9,0.81,1.43c0.19,0.6,0.28,1.22,0.27,1.85L81.6,17.97z M76.12,16.68
			c0.34,0,0.69-0.03,1.02-0.11c0.3-0.07,0.59-0.18,0.87-0.32c0.28-0.14,0.54-0.31,0.78-0.5c0.26-0.21,0.5-0.43,0.73-0.68v-2.48
			c-0.83-0.01-1.66,0.05-2.48,0.18c-0.57,0.09-1.13,0.25-1.66,0.48c-0.37,0.15-0.69,0.39-0.93,0.7c-0.19,0.26-0.29,0.58-0.29,0.91
			c-0.01,0.28,0.05,0.56,0.15,0.82c0.09,0.22,0.24,0.41,0.42,0.57c0.18,0.15,0.39,0.26,0.62,0.32
			C75.6,16.64,75.86,16.68,76.12,16.68L76.12,16.68z"/>
		<path id="Path_562" class="st0" d="M84.87,17.97V0.5h2.12v7.19c0.48-0.56,1.06-1.04,1.71-1.39c0.68-0.36,1.44-0.54,2.21-0.53
			c0.65-0.01,1.29,0.12,1.89,0.39c0.57,0.27,1.06,0.67,1.43,1.17c0.42,0.58,0.73,1.23,0.91,1.92c0.23,0.86,0.33,1.75,0.32,2.64
			c0.01,0.84-0.11,1.67-0.36,2.47c-0.21,0.72-0.56,1.39-1.03,1.98c-0.92,1.16-2.33,1.83-3.81,1.8c-0.69,0.02-1.37-0.13-1.98-0.45
			c-0.56-0.31-1.04-0.74-1.42-1.26l-0.11,1.09c-0.03,0.27-0.27,0.47-0.55,0.45L84.87,17.97z M90.23,7.45
			c-0.64-0.01-1.26,0.15-1.81,0.47c-0.56,0.35-1.04,0.81-1.43,1.34v5.81c0.32,0.47,0.75,0.85,1.26,1.1
			c0.49,0.22,1.01,0.33,1.55,0.32c1.01,0.05,1.98-0.4,2.58-1.2c0.66-1.01,0.98-2.21,0.9-3.41c0.01-0.68-0.06-1.35-0.21-2.02
			c-0.11-0.49-0.31-0.96-0.6-1.38c-0.24-0.34-0.58-0.62-0.96-0.79C91.11,7.53,90.67,7.44,90.23,7.45L90.23,7.45z"/>
		<path id="Path_563" class="st0" d="M104.94,7.94c-0.08,0.17-0.25,0.27-0.44,0.26c-0.14-0.01-0.28-0.05-0.4-0.13
			c-0.15-0.09-0.33-0.18-0.55-0.29c-0.25-0.12-0.51-0.22-0.78-0.3c-0.35-0.1-0.71-0.14-1.07-0.14c-0.33,0-0.65,0.04-0.96,0.14
			c-0.26,0.08-0.51,0.21-0.73,0.37C99.82,8,99.66,8.19,99.55,8.4c-0.11,0.21-0.16,0.45-0.16,0.68c-0.01,0.28,0.09,0.56,0.27,0.77
			c0.2,0.22,0.44,0.4,0.71,0.53c0.32,0.16,0.66,0.3,1,0.4c0.37,0.11,0.75,0.24,1.14,0.37s0.77,0.27,1.14,0.43
			c0.36,0.15,0.7,0.35,1,0.59c0.29,0.24,0.53,0.54,0.71,0.87c0.19,0.39,0.28,0.81,0.27,1.24c0,0.53-0.1,1.05-0.3,1.54
			c-0.2,0.47-0.5,0.89-0.88,1.22c-0.42,0.36-0.9,0.64-1.42,0.81c-0.63,0.21-1.28,0.31-1.95,0.3c-0.78,0.01-1.55-0.13-2.28-0.41
			c-0.63-0.25-1.22-0.6-1.73-1.05l0.5-0.81c0.06-0.1,0.13-0.18,0.23-0.24c0.1-0.06,0.22-0.09,0.35-0.08
			c0.16,0.01,0.32,0.07,0.45,0.17c0.16,0.11,0.35,0.23,0.58,0.37c0.26,0.15,0.53,0.27,0.82,0.37c0.39,0.12,0.79,0.18,1.2,0.17
			c0.37,0.01,0.73-0.05,1.08-0.16c0.28-0.09,0.54-0.24,0.77-0.43c0.2-0.17,0.35-0.39,0.46-0.63c0.1-0.24,0.15-0.5,0.15-0.76
			c0.01-0.3-0.08-0.59-0.27-0.82c-0.2-0.23-0.44-0.42-0.71-0.56c-0.32-0.16-0.65-0.3-1-0.4c-0.38-0.12-0.76-0.24-1.15-0.36
			c-0.39-0.13-0.77-0.27-1.15-0.43c-0.36-0.15-0.7-0.36-1-0.61c-0.3-0.25-0.54-0.56-0.71-0.91c-0.19-0.41-0.28-0.86-0.27-1.31
			c0-0.46,0.1-0.91,0.29-1.32c0.19-0.43,0.48-0.81,0.83-1.12c0.39-0.34,0.85-0.6,1.34-0.76c0.58-0.2,1.2-0.3,1.81-0.29
			c0.73-0.01,1.45,0.12,2.13,0.37c0.6,0.23,1.16,0.58,1.63,1.03L104.94,7.94z"/>
	</g>
</g>
</svg>
